<?xml version="1.0" encoding="UTF-8" standalone="no"?>
<svg
   xmlns:dc="http://purl.org/dc/elements/1.1/"
   xmlns:cc="http://creativecommons.org/ns#"
   xmlns:rdf="http://www.w3.org/1999/02/22-rdf-syntax-ns#"
   xmlns:svg="http://www.w3.org/2000/svg"
   xmlns="http://www.w3.org/2000/svg"
   viewBox="0 0 600 306.45496"
   height="306.45496"
   width="600"
   xml:space="preserve"
   id="svg833"
   version="1.1"><metadata
     id="metadata839"><rdf:RDF><cc:Work
         rdf:about=""><dc:format>image/svg+xml</dc:format><dc:type
           rdf:resource="http://purl.org/dc/dcmitype/StillImage" /><dc:title></dc:title></cc:Work></rdf:RDF></metadata><defs
     id="defs837" /><g
     transform="matrix(1.3333333,0,0,-1.3333333,-284.45599,874.65563)"
     id="g841"><g
       transform="matrix(3.4039552,0,0,3.4039552,-512.86461,-1576.9747)"
       style="fill:#ac9b87;fill-opacity:1"
       id="g2267"><g
         style="fill:#ac9b87;fill-opacity:1"
         id="g893"
         transform="translate(271.779,634.482)"><path
           d="M 0,0 C -0.0786,0.1846 -0.1563,0.351 -0.2319,0.4971 -0.3095,0.6453 -0.3943,0.7714 -0.4931,0.8773 -0.5889,0.9841 -0.7109,1.0658 -0.85,1.1233 -0.9942,1.1818 -1.1676,1.215 -1.3713,1.2231 V 1.4509 H 0.5334 L 2.5429,-3.3939 4.378,1.4509 H 5.0969 L 2.6629,-4.8065 H 2.0358"
           style="fill:#ac9b87;fill-opacity:1;fill-rule:nonzero;stroke:none"
           id="path895" /></g><g
         style="fill:#ac9b87;fill-opacity:1"
         id="g897"
         transform="translate(279.392,637.29)"><path
           d="m 0,0 c -0.2107,0 -0.3932,0.0717 -0.5374,0.2189 -0.1482,0.1462 -0.2208,0.3266 -0.2208,0.5394 0,0.2137 0.0726,0.3932 0.2208,0.5404 C -0.3932,1.4449 -0.2107,1.5165 0,1.5165 0.2128,1.5165 0.3932,1.4449 0.5405,1.2987 0.6856,1.1515 0.7583,0.972 0.7583,0.7583 0.7583,0.5455 0.6856,0.3651 0.5405,0.2189 0.3932,0.0717 0.2128,0 0,0 m -0.4779,-2.3685 c 0,0.2027 -0.0333,0.3459 -0.0999,0.4316 -0.0675,0.0847 -0.1512,0.1372 -0.254,0.1603 -0.1019,0.0212 -0.2128,0.0262 -0.3328,0.0131 -0.119,-0.0131 -0.2268,-0.0141 -0.3246,-0.007 v 0.2258 l 2.0498,0.3196 v -6.2555 h -1.0385"
           style="fill:#ac9b87;fill-opacity:1;fill-rule:nonzero;stroke:none"
           id="path899" /></g><g
         style="fill:#ac9b87;fill-opacity:1"
         id="g901"
         transform="translate(282.479,643.048)"><path
           d="m 0,0 c 0,0.1946 -0.0333,0.3358 -0.0988,0.4204 -0.0676,0.0838 -0.1523,0.1362 -0.2531,0.1593 -0.1029,0.0213 -0.2138,0.0283 -0.3327,0.0192 -0.119,-0.0091 -0.2279,-0.0091 -0.3257,0 V 0.8248 L 1.0375,1.1444 V -13.238 H 0"
           style="fill:#ac9b87;fill-opacity:1;fill-rule:nonzero;stroke:none"
           id="path903" /></g><g
         style="fill:#ac9b87;fill-opacity:1"
         id="g905"
         transform="translate(286.178,646.943)"><path
           d="M 0,0 C 0,0.1957 -0.0333,0.3358 -0.0988,0.4195 -0.1644,0.5032 -0.2511,0.5576 -0.3499,0.5778 -0.4527,0.6 -0.5637,0.608 -0.6826,0.598 c -0.121,-0.0082 -0.2309,-0.0082 -0.3267,0 V 0.8248 L 1.0396,1.1444 V -17.133 H 0"
           style="fill:#ac9b87;fill-opacity:1;fill-rule:nonzero;stroke:none"
           id="path907" /></g><g
         style="fill:#ac9b87;fill-opacity:1"
         id="g909"
         transform="translate(292.966,634.003)"><path
           d="M 0,0 C 0,0.1764 -0.0161,0.3669 -0.0514,0.5726 -0.0897,0.7764 -0.1512,0.965 -0.247,1.1434 -0.3387,1.3209 -0.4658,1.467 -0.6322,1.583 -0.7955,1.699 -1.0063,1.7574 -1.2624,1.7574 -1.5134,1.7574 -1.7272,1.6879 -1.9077,1.5497 -2.0892,1.4116 -2.2404,1.2513 -2.3544,1.0647 -2.4713,0.8782 -2.554,0.6836 -2.6085,0.486 -2.6609,0.2874 -2.6871,0.124 -2.6871,0 Z M 1.0134,-4.0857 C 0.8521,-4.1492 0.6494,-4.2026 0.4064,-4.252 0.1613,-4.3014 -0.1623,-4.3267 -0.5737,-4.3267 c -1.0365,0 -1.8311,0.2793 -2.3877,0.84 -0.5545,0.5586 -0.8318,1.4005 -0.8318,2.5277 0,0.9761 0.2107,1.7233 0.6332,2.2426 0.4235,0.5202 1.1121,0.7794 2.07,0.7794 0.2995,0 0.5909,-0.0424 0.8662,-0.1271 C 0.0494,1.8512 0.2924,1.7202 0.4991,1.5376 0.7079,1.3551 0.8752,1.1272 0.9992,0.85 1.1243,0.5757 1.1848,0.244 1.1848,-0.1453 v -0.2933 h -3.8719 c 0,-0.852 0.0403,-1.5074 0.12,-1.9642 0.0786,-0.4557 0.2248,-0.7925 0.4336,-1.0032 0.2056,-0.2148 0.488,-0.3378 0.8439,-0.3742 0.3539,-0.0362 0.8117,-0.0534 1.3713,-0.0534 0.1502,0 0.3095,0.0111 0.4769,0.0343 0.1694,0.0212 0.3206,0.0686 0.4548,0.1391"
           style="fill:#ac9b87;fill-opacity:1;fill-rule:nonzero;stroke:none"
           id="path911" /></g><g
         style="fill:#ac9b87;fill-opacity:1"
         id="g913"
         transform="translate(300.288,632.872)"><path
           d="m 0,0 c 0,-0.2935 0.0192,-0.604 0.0525,-0.9307 0.0353,-0.3297 0.1058,-0.6362 0.2077,-0.9206 0.0988,-0.2822 0.247,-0.5172 0.4406,-0.7038 0.1885,-0.1875 0.4346,-0.2812 0.7381,-0.2812 0.2651,0 0.487,0.0978 0.6624,0.2883 0.1785,0.1906 0.3217,0.4275 0.4285,0.7119 0.1059,0.2813 0.1785,0.5888 0.2259,0.9186 C 2.7991,-0.5908 2.8223,-0.2853 2.8223,0 2.8223,0.3186 2.7961,0.6453 2.7496,0.9791 2.7003,1.3118 2.6246,1.6143 2.5157,1.8906 2.4078,2.1648 2.2677,2.3907 2.0902,2.5681 1.9117,2.7466 1.696,2.8344 1.4389,2.8344 1.1555,2.8344 0.9186,2.7396 0.7331,2.547 0.5445,2.3574 0.3973,2.1184 0.2914,1.8351 0.1866,1.5528 0.111,1.2462 0.0645,0.9175 0.0202,0.5908 0,0.2833 0,0 M 2.8223,-2.2102 H 2.793 C 2.7698,-2.299 2.7083,-2.3998 2.6176,-2.5157 2.5218,-2.6296 2.4078,-2.7375 2.2707,-2.8363 2.1306,-2.9331 1.9763,-3.0188 1.8039,-3.0894 1.6304,-3.159 1.451,-3.1953 1.2634,-3.1953 c -0.4608,0 -0.8489,0.0918 -1.1646,0.2723 -0.3125,0.1845 -0.5656,0.4224 -0.7582,0.7199 -0.1896,0.2984 -0.3267,0.6362 -0.4033,1.0173 -0.0817,0.3822 -0.122,0.7764 -0.122,1.1858 0,0.4073 0.0403,0.8026 0.122,1.1838 0.0766,0.3811 0.2137,0.7209 0.4033,1.0193 0.1926,0.2965 0.4457,0.5365 0.7582,0.719 0.3157,0.1804 0.7038,0.2722 1.1646,0.2722 0.2138,0 0.4054,-0.0363 0.5748,-0.1069 C 2.0055,3.0168 2.1538,2.9281 2.2768,2.8212 2.4028,2.7134 2.5067,2.6045 2.5944,2.4875 2.6841,2.3726 2.7496,2.2677 2.793,2.1699 H 2.8223 V 14.071 c 0,0.194 -0.0353,0.336 -0.1079,0.419 -0.0696,0.083 -0.1573,0.138 -0.2572,0.159 -0.1048,0.022 -0.2127,0.03 -0.3266,0.019 -0.118,-0.008 -0.2249,-0.008 -0.3207,0 v 0.227 l 2.0509,0.32 V -2.8616 L 2.8223,-3.2609"
           style="fill:#ac9b87;fill-opacity:1;fill-rule:nonzero;stroke:none"
           id="path915" /></g><g
         style="fill:#ac9b87;fill-opacity:1"
         id="g917"
         transform="translate(309.75,634.003)"><path
           d="M 0,0 C 0,0.1764 -0.0172,0.3669 -0.0534,0.5726 -0.0867,0.7764 -0.1512,0.965 -0.246,1.1434 -0.3408,1.3209 -0.4678,1.467 -0.6332,1.583 -0.7966,1.699 -1.0093,1.7574 -1.2634,1.7574 -1.5114,1.7574 -1.7272,1.6879 -1.9087,1.5497 -2.0902,1.4116 -2.2395,1.2513 -2.3554,1.0647 -2.4724,0.8782 -2.5551,0.6836 -2.6095,0.486 -2.6619,0.2874 -2.6891,0.124 -2.6891,0 Z M 1.0123,-4.0857 C 0.849,-4.1492 0.6483,-4.2026 0.4063,-4.252 c -0.245,-0.0494 -0.5707,-0.0747 -0.978,-0.0747 -1.0395,0 -1.8331,0.2793 -2.3887,0.84 -0.5565,0.5586 -0.8308,1.4005 -0.8308,2.5277 0,0.9761 0.2077,1.7233 0.6302,2.2426 0.4205,0.5202 1.1121,0.7794 2.069,0.7794 0.3025,0 0.5909,-0.0424 0.8641,-0.1271 C 0.0484,1.8512 0.2904,1.7202 0.4991,1.5376 0.7068,1.3551 0.8732,1.1272 0.9972,0.85 1.1212,0.5757 1.1817,0.244 1.1817,-0.1453 v -0.2933 h -3.8708 c 0,-0.852 0.0423,-1.5074 0.121,-1.9642 0.0786,-0.4557 0.2248,-0.7925 0.4335,-1.0032 0.2057,-0.2148 0.489,-0.3378 0.844,-0.3742 0.3539,-0.0362 0.8106,-0.0534 1.3703,-0.0534 0.1512,0 0.3115,0.0111 0.4779,0.0343 0.1684,0.0212 0.3206,0.0686 0.4547,0.1391"
           style="fill:#ac9b87;fill-opacity:1;fill-rule:nonzero;stroke:none"
           id="path919" /></g></g><g
       transform="matrix(3.4039552,0,0,3.4039552,-512.86461,-1576.9747)"
       id="g2301"><g
         id="g2294"
         style="fill:#008bb0;fill-opacity:1"><path
           d="m 323.07,625.88 c -0.4033,-0.4901 0.0696,-1.9148 1.2251,-1.2181 0.244,0.2572 0.5283,0.8128 0.2228,1.2181 -0.3065,0.4053 -0.9488,0.5777 -1.4479,0"
           style="fill:#008bb0;fill-opacity:1;fill-rule:nonzero;stroke:none"
           id="path927" /><path
           d="m 331.94,615.288 c -1.3299,0.7693 0.9489,2.9563 0.4316,3.5361 -0.9186,1.0325 -2.9987,-0.362 -4.2813,-1.1162 -0.7088,-0.4194 -1.2432,-0.4204 -1.1141,-0.1694 5.0374,9.6265 -7.0812,-3.4504 -7.5682,-1.221 0.402,2.0569 1.961,3.7942 2.9945,5.7846 0.0605,0.6433 -0.6605,0.5808 -1.0585,0.5152 -8.828,-7.9212 -8.968,-6.4289 -8.968,-6.4289 -0.02,0.8994 0.631,1.9289 0.987,2.7638 2.942,5.8522 8.7501,14.6338 12.9427,19.2248 -0.232,0.45 -0.7361,0.516 -1.1344,0.45 -4.2903,-5.061 -12.9743,-16.5421 -14.3253,-21.7005 -0.639,0.3216 -3.242,-0.354 -4.774,-0.2299 -1.696,0.5041 0.797,2.3271 -0.73,2.9735 -0.689,0.4971 -2.166,-1.5387 -3.782,-2.5228 -1.191,-0.725 -2.496,-0.846 -2.942,-0.2561 -0.447,0.5878 2.028,2.0227 2.195,3.2457 -0.217,0.359 -0.105,1.0829 -0.938,0.8661 -2.447,-2.3684 -4.111,-2.6104 -4.907,-2.6054 0.054,0.2138 0.108,0.4487 0.16,0.7351 0,0 0.233,0.8963 -0.453,1.0284 -0.819,0.1574 -1.306,0.2592 -1.83,-0.0585 -0.525,-0.3196 -0.461,-0.5344 -0.342,-1.0123 0.22,-0.8692 0.541,-1.2352 -0.58,-2.6831 -1.118,-1.4438 -10.174,-3.0884 -5.414,1.2967 2.157,1.5649 4.5,2.8948 6.862,3.1257 0,10e-5 0.44,0.4598 -0.158,0.4981 -1.097,0.0696 -3.455,-0.3972 -4.748,-1.0194 -1.871,-0.9841 -4.356,-2.1406 -4.911,-4.3982 -0.076,-0.6957 0.192,-1.3904 0.578,-1.7937 1.989,-1.9713 7.406,0.2268 8.331,0.8661 0.601,0.4174 1.176,0.9458 1.509,1.3471 0.864,0.0706 2.308,0.4648 2.637,0.4396 0.234,-0.6453 0.251,-1.2916 0.887,-1.7212 1.938,-0.7199 4.09,0.3569 6.007,1.3612 0.998,-1.5054 3.339,-1.6506 5.234,-1.1474 0.575,0.2622 1.486,0.5001 1.954,0.9095 -0.086,-0.6907 0.015,-1.217 0.354,-1.5266 1.519,-1.6526 5.071,1.9289 6.824,3.3436 0,0 0.401,0.3972 0.17,-0.1291 -0.549,-1.2493 -1.203,-6.7597 5.9183,-0.964 0.2571,0.1946 0.6393,0.6302 0.8641,0.3227 0.3157,-0.4275 -0.6533,-1.7273 1.0275,-1.7978 1.1242,-0.2006 2.8373,1.1636 3.6248,1.4106 -0.122,-2.5782 1.3279,-3.0874 2.306,-3.0219 0.7472,0.1926 1.8129,0.3832 2.192,1.3502 -0.4638,0.5777 -1.337,0.0645 -2.0317,0.129"
           style="fill:#008bb0;fill-opacity:1;fill-rule:nonzero;stroke:none"
           id="path923" /><path
           d="m 345.22,621.074 c -1.7917,1.0274 -7.3606,0.363 -6.7395,-2.2223 0.1987,-1.2856 1.6314,-1.707 2.0549,-2.2414 0.8874,-1.1203 -5.7644,-1.9662 -5.7644,-1.9662 -0.229,-0.1927 -1.31,-1.4661 7.3565,0.129 0.3025,0.1371 2.6337,0.974 0.2058,2.3978 -1.2806,0.7522 -2.4825,1.5669 -2.4281,1.9843 0.1372,1.0637 4.3367,1.1263 4.8107,0.9105 1.3773,0.0474 0.6473,0.7512 0.5041,1.0083"
           style="fill:#008bb0;fill-opacity:1;fill-rule:nonzero;stroke:none"
           id="path939" /><path
           d="m 279.579,615.015 c -1.7313,0.0212 -1.8795,1.4761 -1.9995,2.6458 -0.0766,0.7572 0.005,2.2888 -1.6495,2.2163 -1.3925,-0.0616 -2.9039,-1.1657 -4.2379,-2.4331 -3.6571,-3.4715 -3.3541,-1.3007 -2.0923,3.7207 1.8573,7.3903 -1.4308,6.8683 -3.3178,5.1343 0,0 -6.455,-7.0481 -6.827,-7.3012 -0.83,-0.5667 -0.475,0.7613 -0.475,0.7613 1.768,4.1582 3.27,8.7559 4.722,13.2029 0.556,1.701 1.107,3.392 1.662,5.018 0.238,0.961 0.499,1.924 0.76,2.888 1.236,4.562 4.1756,15.32 -2.119,15.121 -2.636,-0.083 -15.14,-3.817 -29.93,-27.047 -12.37,-19.4313 -19.155,-36.647 -20.733,-40.313 0,0 0.531,-0.592 1.399,0.508 1.334,3.378 25.906,60.139 49.217,65.515 0,0 2.189,0.392 1.897,-6.008 -0.202,-4.435 -4.682,-18.703 -8.512,-28.0511 -0.11,-0.8208 -2.851,-5.8733 -1.225,-7.1186 0.158,-0.121 0.325,-0.2198 0.541,-0.1997 1.255,0.1201 3.623,3.3537 4.681,4.722 1.66,2.1456 3.377,4.3649 5.423,6.4077 0,0 1.529,1.3827 1.339,-0.3479 -0.191,-1.7282 -0.34,-2.3937 -0.694,-3.5542 -1.964,-6.437 0.834,-6.3947 1.275,-6.3947 1.3454,0 2.755,1.1555 4.1182,2.2727 0.5193,0.4245 1.6939,1.3078 1.6939,1.3078 0,0 0.4981,0.4638 1.0255,-1.7534 0.2138,-0.8994 0.4053,-1.7494 1.091,-2.1285 0.8802,-0.4407 2.1164,-0.2894 2.313,-0.234 1.3552,0.2602 2.4411,0.6151 3.283,1.4691 -0.4113,0.485 -2.5449,-0.0434 -2.6286,-0.0262"
           style="fill:#008bb0;fill-opacity:1;fill-rule:nonzero;stroke:none"
           id="path943" /></g></g><g
       transform="matrix(3.4039552,0,0,3.4039552,-512.86461,-1576.9747)"
       id="g2251"><g
         id="g945"
         transform="translate(255.858,593.077)"><path
           d="m 0,0 h 4.4557 v 1.1878 h -4.489 C -0.0121,0.8046 0,0.4094 0,0"
           style="fill:#238292;fill-opacity:1;fill-rule:nonzero;stroke:none"
           id="path947" /></g><g
         id="g949"
         transform="translate(260.314,609.99)"><path
           d="m 0,0 h -16.458 v -3.887 c 0.058,0.003 10.9739,0.3317 11.9287,-11.356 H 0"
           style="fill:#238292;fill-opacity:1;fill-rule:nonzero;stroke:none"
           id="path951" /></g><g
         id="g953"
         transform="translate(269.261,602.835)"><path
           d="m 0,0 v 7.1549 h -7.6248 l -0.006,-15.2424 h 4.1764 C -3.1399,-4.2288 -1.7383,-1.6838 0,0"
           style="fill:#90bc4a;fill-opacity:1;fill-rule:nonzero;stroke:none"
           id="path955" /></g><g
         id="g957"
         transform="translate(261.629,593.077)"><path
           d="m 0,0 h 4.1108 c 0,0.4104 0.0152,0.8027 0.0374,1.1878 H 0.001"
           style="fill:#90bc4a;fill-opacity:1;fill-rule:nonzero;stroke:none"
           id="path959" /></g><g
         id="g961"
         transform="translate(277.743,606.102)"><path
           d="M 0,0 V 3.887 H -7.2204 V -2.2213 C -3.888,0.119 -0.0343,0.0021 0,0"
           style="fill:#90bc4a;fill-opacity:1;fill-rule:nonzero;stroke:none"
           id="path963" /></g><path
         d="m 292.15,593.077 h 1.9803 v 1.1878 H 292.15 Z"
         style="fill:#cfb73c;fill-opacity:1;fill-rule:nonzero;stroke:none"
         id="path965" /><path
         d="m 292.15,594.747 h 1.9803 v 15.242 H 292.15 Z"
         style="fill:#cfb73c;fill-opacity:1;fill-rule:nonzero;stroke:none"
         id="path967" /><g
         id="g969"
         transform="translate(291.519,609.99)"><path
           d="m 0,0 h -13.776 v -3.887 c 0.057,0.003 10.9729,0.3317 11.9278,-11.356 H 0"
           style="fill:#cfb73c;fill-opacity:1;fill-rule:nonzero;stroke:none"
           id="path971" /></g><g
         id="g973"
         transform="translate(289.745,593.077)"><path
           d="M 0,0 H 1.7746 V 1.1878 H -0.0333 C -0.0111,0.8046 0,0.4094 0,0"
           style="fill:#cfb73c;fill-opacity:1;fill-rule:nonzero;stroke:none"
           id="path975" /></g><g
         id="g977"
         transform="translate(310.785,606.074)"><path
           d="M 0,0 V 3.9153 H -15.056 V -11.327 h 3.971 C -10.292,-1.5931 -2.5903,-0.1926 0,0"
           style="fill:#cb541f;fill-opacity:1;fill-rule:nonzero;stroke:none"
           id="path979" /></g><g
         id="g981"
         transform="translate(295.728,593.077)"><path
           d="m 0,0 h 3.8991 c 0,0.4104 0.0151,0.8036 0.0363,1.1878 H 0"
           style="fill:#cb541f;fill-opacity:1;fill-rule:nonzero;stroke:none"
           id="path983" /></g><g
         id="g985"
         transform="translate(314.453,609.99)"><path
           d="M 0,0 H -2.071 V -3.9092 C -1.5679,-3.9425 -0.845,-4.0221 0,-4.2107"
           style="fill:#b01673;fill-opacity:1;fill-rule:nonzero;stroke:none"
           id="path987" /></g><g
         id="g989"
         transform="translate(328.568,609.99)"><path
           d="m 0,0 h -13.216 v -4.4446 c 3.2802,-0.969 7.629,-3.6128 8.2138,-10.7984 H 0.005"
           style="fill:#b01673;fill-opacity:1;fill-rule:nonzero;stroke:none"
           id="path991" /></g><g
         id="g993"
         transform="translate(323.598,594.265)"><path
           d="M 0,0 C 0.0212,-0.3842 0.0363,-0.7784 0.0363,-1.1878 H 4.977 L 4.976,0"
           style="fill:#b01673;fill-opacity:1;fill-rule:nonzero;stroke:none"
           id="path995" /></g><g
         id="g997"
         transform="translate(328.574,593.077)"><path
           d="m 0,0 h 4.9417 c 0,0.4104 0.0131,0.8036 0.0343,1.1878 H 0"
           style="fill:#820e0a;fill-opacity:1;fill-rule:nonzero;stroke:none"
           id="path999" /></g><g
         id="g1001"
         transform="translate(335.112,600.278)"><path
           d="m 0,0 v 9.712 h -6.5298 l -0.007,-15.2425 h 5.0133 C -1.337,-3.2679 -0.7824,-1.452 0,0"
           style="fill:#820e0a;fill-opacity:1;fill-rule:nonzero;stroke:none"
           id="path1003" /></g><g
         id="g1005"
         transform="translate(345.518,606.102)"><path
           d="M 0,0 V 3.887 H -8.2136 V -3.0107 C -4.7108,0.1473 -0.0363,0.0021 0,0"
           style="fill:#820e0a;fill-opacity:1;fill-rule:nonzero;stroke:none"
           id="path1007" /></g></g></g></svg>
